# xmcd
#
# Track frame offsets: 
#        150
#        15333
#        29897
#        45194
#        59700
#        77555
#        97725
#        111555
#        127375
#        144716
#        162074
#        177267
#        198329
#
# Disc length: 2800 seconds
#
# Revision: 0
# Processed by: cddbd v1.5.2PL0 Copyright (c) Steve Scherf et al.
# Submitted via: ExactAudioCopy v0.99pb4
#
DISCID=b10aee0d
DTITLE=Reverend KM Williams - When I rise
DYEAR=1900
DGENRE=Blues
TTITLE0=When I rise
TTITLE1=Free to roam
TTITLE2=The lord will work it out somehow
TTITLE3=I'm comin' home
TTITLE4=Something took control of me
TTITLE5=Tell me woman
TTITLE6=Goin away baby
TTITLE7=we'll go back to god
TTITLE8=Please come back home
TTITLE9=I'm a boogie man
TTITLE10=Take a little walk with me
TTITLE11=Hard times everywhere
TTITLE12=My lord knows just what to do
EXTD=
EXTT0=
EXTT1=
EXTT2=
EXTT3=
EXTT4=
EXTT5=
EXTT6=
EXTT7=
EXTT8=
EXTT9=
EXTT10=
EXTT11=
EXTT12=
PLAYORDER=
